<?xml version="1.0" encoding="utf-8"?>
<!-- Generator: Adobe Illustrator 26.1.0, SVG Export Plug-In . SVG Version: 6.00 Build 0)  -->
<svg version="1.1" id="Layer_1" xmlns="http://www.w3.org/2000/svg" xmlns:xlink="http://www.w3.org/1999/xlink" x="0px" y="0px"
	 viewBox="0 0 595.28 841.89" style="enable-background:new 0 0 595.28 841.89;" xml:space="preserve">
<style type="text/css">
	.st0{fill:#D93931;}
	.st1{fill:#EECB46;}
	.st2{fill:none;stroke:#23478B;stroke-width:30;stroke-linecap:round;stroke-miterlimit:10;}
</style>
<g id="icon_01">
	<g>
		<path class="st0" d="M198.47,294.71c0-41.42,33.58-75,75-75s75,33.58,75,75"/>
		<path class="st0" d="M238.77,361.01c0-41.42,33.58-75,75-75s75,33.58,75,75"/>
		<path class="st0" d="M158.18,361.01c0-41.42,33.58-75,75-75s75,33.58,75,75"/>
		<path class="st0" d="M198.47,361.01c0-41.42,33.58-75,75-75s75,33.58,75,75"/>
		<path class="st0" d="M219.96,361.01c0-41.42-33.58-75-75-75s-75,33.58-75,75s33.58,75,75,75h255.26c41.42,0,75-33.58,75-75
			s-33.58-75-75-75s-75,33.58-75,75"/>
	</g>
	<g>
		<path class="st1" d="M249.29,356.79c0-41.42,33.58-75,75-75s75,33.58,75,75"/>
		<path class="st1" d="M289.59,423.09c0-41.42,33.58-75,75-75s75,33.58,75,75"/>
		<path class="st1" d="M209,423.09c0-41.42,33.58-75,75-75s75,33.58,75,75"/>
		<path class="st1" d="M249.29,423.09c0-41.42,33.58-75,75-75s75,33.58,75,75"/>
		<path class="st1" d="M270.78,423.09c0-41.42-33.58-75-75-75s-75,33.58-75,75s33.58,75,75,75h255.26c41.42,0,75-33.58,75-75
			s-33.58-75-75-75s-75,33.58-75,75"/>
	</g>
	<path class="st2" d="M217.59,327.86c0-41.42,33.58-75,75-75s75,33.58,75,75"/>
	<path class="st2" d="M239.07,394.16c0-41.42-33.58-75-75-75s-75,33.58-75,75s33.58,75,75,75h255.26c41.42,0,75-33.58,75-75
		s-33.58-75-75-75s-75,33.58-75,75"/>
	<line class="st2" x1="292.42" y1="606.29" x2="354.4" y2="544.05"/>
	<line class="st2" x1="291.71" y1="606.16" x2="229.46" y2="544.18"/>
	<line class="st2" x1="291.71" y1="469.16" x2="292.27" y2="606.29"/>
</g>
</svg>
